<svg xmlns="http://www.w3.org/2000/svg" version="1.0" width="256.000000pt" height="256.000000pt" viewBox="0 0 256.000000 256.000000" preserveAspectRatio="xMidYMid meet">

<g transform="translate(0.000000,256.000000) scale(0.100000,-0.100000)" fill="#9188f8" stroke="none">
<path d="M1110 2461 c0 -10 7 -38 16 -62 20 -58 20 -215 -1 -294 -21 -81 -64 -169 -114 -235 -41 -55 -104 -110 -126 -110 -26 0 -49 44 -70 132 l-23 93 -66 -69 c-47 -49 -80 -96 -109 -155 l-42 -85 1 -115 c0 -106 4 -126 38 -231 20 -63 42 -147 48 -186 10 -63 9 -75 -8 -110 -21 -43 -58 -66 -92 -57 -28 7 -48 46 -92 176 -18 54 -37 94 -41 90 -4 -5 -19 -53 -33 -108 -83 -329 -38 -590 136 -779 73 -81 212 -175 295 -200 21 -7 21 -6 -7 51 -79 161 -62 395 42 571 26 44 39 57 58 57 20 0 30 -12 58 -69 46 -95 120 -188 146 -184 18 3 22 15 33 113 27 228 86 381 195 500 74 80 96 83 116 15 30 -102 67 -185 138 -307 99 -170 148 -272 173 -363 25 -89 27 -202 6 -284 -9 -33 -14 -61 -12 -63 10 -9 168 120 232 189 80 86 126 159 163 256 23 59 26 82 26 197 1 124 -1 135 -36 237 -67 195 -166 364 -301 519 -40 46 -81 90 -90 98 -15 12 -17 10 -17 -14 0 -32 -49 -85 -79 -85 -39 0 -58 42 -65 145 -13 168 -70 334 -160 460 -55 77 -163 182 -244 236 -81 54 -92 58 -92 30z" fill="#9188f8"/>
</g>
</svg>