{
  "accessors": [
    {
      "bufferView": 2,
      "componentType": 5126,
      "count": 226,
      "max": [
        0.06190040707588196,
        0.061900362372398376,
        0.06450021266937256
      ],
      "min": [
        -0.06190039962530136,
        -0.061900362372398376,
        -0.06450027227401733
      ],
      "type": "VEC3"
    },
    {
      "bufferView": 2,
      "byteOffset": 2712,
      "componentType": 5126,
      "count": 226,
      "max": [
        1.0,
        1.0,
        1.0
      ],
      "min": [
        -1.0,
        -1.0,
        -1.0
      ],
      "type": "VEC3"
    },
    {
      "bufferView": 3,
      "componentType": 5126,
      "count": 226,
      "max": [
        0.9999775886535645,
        0.41238945722579956,
        0.9970538020133972,
        1.0
      ],
      "min": [
        -0.9999409317970276,
        -0.5227492451667786,
        -0.9970646500587463,
        1.0
      ],
      "type": "VEC4"
    },
    {
      "bufferView": 1,
      "componentType": 5126,
      "count": 226,
      "max": [
        0.9982961416244507,
        0.9957237243652344
      ],
      "min": [
        0.0034970343112945557,
        0.001703023910522461
      ],
      "type": "VEC2"
    },
    {
      "bufferView": 1,
      "byteOffset": 1808,
      "componentType": 5126,
      "count": 226,
      "max": [
        0.9982961416244507,
        0.9957237243652344
      ],
      "min": [
        0.0034970343112945557,
        0.001703023910522461
      ],
      "type": "VEC2"
    },
    {
      "bufferView": 1,
      "byteOffset": 3616,
      "componentType": 5126,
      "count": 226,
      "max": [
        0.9982961416244507,
        0.9957237243652344
      ],
      "min": [
        0.0034970343112945557,
        0.001703023910522461
      ],
      "type": "VEC2"
    },
    {
      "bufferView": 0,
      "componentType": 5125,
      "count": 1248,
      "type": "SCALAR"
    },
    {
      "bufferView": 2,
      "byteOffset": 5424,
      "componentType": 5126,
      "count": 226,
      "max": [
        0.06167292594909668,
        0.06151500344276428,
        0.05271351337432861
      ],
      "min": [
        -0.06135695427656174,
        -0.06151503324508667,
        -0.06411492824554443
      ],
      "type": "VEC3"
    },
    {
      "bufferView": 2,
      "byteOffset": 8136,
      "componentType": 5126,
      "count": 226,
      "max": [
        1.0,
        1.0,
        1.0
      ],
      "min": [
        -1.0,
        -1.0,
        -1.0
      ],
      "type": "VEC3"
    },
    {
      "bufferView": 3,
      "byteOffset": 3616,
      "componentType": 5126,
      "count": 226,
      "max": [
        0.9999165534973145,
        0.4037349820137024,
        0.9970344305038452,
        1.0
      ],
      "min": [
        -0.9998995065689087,
        -0.4920802414417267,
        -0.9970456957817078,
        1.0
      ],
      "type": "VEC4"
    },
    {
      "bufferView": 1,
      "byteOffset": 5424,
      "componentType": 5126,
      "count": 226,
      "max": [
        0.9953685998916626,
        0.993424654006958
      ],
      "min": [
        0.004884511232376099,
        0.002394556999206543
      ],
      "type": "VEC2"
    },
    {
      "bufferView": 1,
      "byteOffset": 7232,
      "componentType": 5126,
      "count": 226,
      "max": [
        0.9953685998916626,
        0.993424654006958
      ],
      "min": [
        0.004884511232376099,
        0.002394556999206543
      ],
      "type": "VEC2"
    },
    {
      "bufferView": 0,
      "byteOffset": 4992,
      "componentType": 5125,
      "count": 1248,
      "type": "SCALAR"
    }
  ],
  "asset": {
    "extras": {
      "author": "Tom Hodes (https://sketchfab.com/tomhodes)",
      "license": "CC-BY-4.0 (http://creativecommons.org/licenses/by/4.0/)",
      "source": "https://sketchfab.com/3d-models/eyeball-v2-brown-game-object-free-download-2c469e523d1d472b867da0b910115c9c",
      "title": "Eyeball V2 (brown) Game Object. Free download"
    },
    "generator": "Sketchfab-12.66.0",
    "version": "2.0"
  },
  "bufferViews": [
    {
      "buffer": 0,
      "byteLength": 9984,
      "name": "floatBufferViews",
      "target": 34963
    },
    {
      "buffer": 0,
      "byteLength": 9040,
      "byteOffset": 9984,
      "byteStride": 8,
      "name": "floatBufferViews",
      "target": 34962
    },
    {
      "buffer": 0,
      "byteLength": 10848,
      "byteOffset": 19024,
      "byteStride": 12,
      "name": "floatBufferViews",
      "target": 34962
    },
    {
      "buffer": 0,
      "byteLength": 7232,
      "byteOffset": 29872,
      "byteStride": 16,
      "name": "floatBufferViews",
      "target": 34962
    }
  ],
  "buffers": [
    {
      "byteLength": 37104,
      "uri": "scene.bin"
    }
  ],
  "images": [
    {
      "uri": "textures/OrangOetan__LOWOog_binnen_baseColor.png"
    },
    {
      "uri": "textures/OrangOetan__LOWOog_binnen_metallicRoughness.png"
    },
    {
      "uri": "textures/OrangOetan__LOWOog_binnen_normal.png"
    },
    {
      "uri": "textures/OrangOetan__LOWOog_buiten_baseColor.jpeg"
    },
    {
      "uri": "textures/OrangOetan__LOWOog_buiten_emissive.jpeg"
    },
    {
      "uri": "textures/OrangOetan__LOWOog_buiten_normal.png"
    }
  ],
  "materials": [
    {
      "alphaMode": "BLEND",
      "doubleSided": true,
      "name": "OrangOetan__LOWOog_binnen",
      "normalTexture": {
        "index": 2
      },
      "pbrMetallicRoughness": {
        "baseColorFactor": [
          1.0,
          1.0,
          1.0,
          0.02
        ],
        "baseColorTexture": {
          "index": 0
        },
        "metallicRoughnessTexture": {
          "index": 1
        }
      }
    },
    {
      "doubleSided": true,
      "emissiveFactor": [
        0.5,
        0.5,
        0.5
      ],
      "emissiveTexture": {
        "index": 4
      },
      "name": "OrangOetan__LOWOog_buiten",
      "normalTexture": {
        "index": 5
      },
      "pbrMetallicRoughness": {
        "baseColorTexture": {
          "index": 3
        },
        "metallicFactor": 0.0
      }
    }
  ],
  "meshes": [
    {
      "name": "polySurface7_OrangOetan__LOW:Oog_binnen_0",
      "primitives": [
        {
          "attributes": {
            "NORMAL": 1,
            "POSITION": 0,
            "TANGENT": 2,
            "TEXCOORD_0": 3,
            "TEXCOORD_1": 4,
            "TEXCOORD_2": 5
          },
          "indices": 6,
          "material": 0,
          "mode": 4
        }
      ]
    },
    {
      "name": "polySurface7_OrangOetan__LOW:Oog_buiten_0",
      "primitives": [
        {
          "attributes": {
            "NORMAL": 8,
            "POSITION": 7,
            "TANGENT": 9,
            "TEXCOORD_0": 10,
            "TEXCOORD_1": 11
          },
          "indices": 12,
          "material": 1,
          "mode": 4
        }
      ]
    }
  ],
  "nodes": [
    {
      "children": [
        1
      ],
      "matrix": [
        1.386009693145752,
        0.0,
        0.0,
        0.0,
        0.0,
        3.0775597473681237e-16,
        -1.386009693145752,
        0.0,
        0.0,
        1.386009693145752,
        3.0775597473681237e-16,
        0.0,
        0.0,
        0.0,
        0.0,
        1.0
      ],
      "name": "Sketchfab_model"
    },
    {
      "children": [
        2
      ],
      "matrix": [
        1.0,
        0.0,
        0.0,
        0.0,
        0.0,
        0.0,
        1.0,
        0.0,
        0.0,
        -1.0,
        0.0,
        0.0,
        0.0,
        0.0,
        0.0,
        1.0
      ],
      "name": "2ff6f6b034bb476abfafdf694f741d83.fbx"
    },
    {
      "children": [
        3
      ],
      "name": "RootNode"
    },
    {
      "children": [
        4,
        5
      ],
      "name": "polySurface7"
    },
    {
      "mesh": 0,
      "name": "polySurface7_OrangOetan__LOW:Oog_binnen_0"
    },
    {
      "mesh": 1,
      "name": "polySurface7_OrangOetan__LOW:Oog_buiten_0"
    }
  ],
  "samplers": [
    {
      "magFilter": 9729,
      "minFilter": 9987,
      "wrapS": 10497,
      "wrapT": 10497
    }
  ],
  "scene": 0,
  "scenes": [
    {
      "name": "Sketchfab_Scene",
      "nodes": [
        0
      ]
    }
  ],
  "textures": [
    {
      "sampler": 0,
      "source": 0
    },
    {
      "sampler": 0,
      "source": 1
    },
    {
      "sampler": 0,
      "source": 2
    },
    {
      "sampler": 0,
      "source": 3
    },
    {
      "sampler": 0,
      "source": 4
    },
    {
      "sampler": 0,
      "source": 5
    }
  ]
}
